<?xml version="1.0" encoding="UTF-8" standalone="no"?>
<!DOCTYPE svg PUBLIC "-//W3C//DTD SVG 1.1//EN" "http://www.w3.org/Graphics/SVG/1.1/DTD/svg11.dtd">
<svg width="100%" height="100%" viewBox="0 0 512 512" version="1.1" xmlns="http://www.w3.org/2000/svg" xmlns:xlink="http://www.w3.org/1999/xlink" xml:space="preserve" xmlns:serif="http://www.serif.com/" style="fill-rule:evenodd;clip-rule:evenodd;stroke-linejoin:round;stroke-miterlimit:1.41421;">
    <path d="M206.932,0C178.682,0 155.7,22.982 155.7,51.232C155.7,79.482 178.683,102.464 206.932,102.464C235.182,102.464 258.164,79.482 258.164,51.232C258.164,22.982 235.182,0 206.932,0ZM206.932,87.463C186.954,87.463 170.701,71.21 170.701,51.232C170.701,31.254 186.955,15.001 206.932,15.001C226.91,15.001 243.163,31.255 243.163,51.232C243.163,71.209 226.91,87.463 206.932,87.463Z" style="fill-rule:nonzero;"/>
    <path d="M440.383,362.372C436.323,361.567 432.372,364.203 431.565,368.267C422.965,411.54 392.43,448.513 351.874,464.761C348.029,466.301 346.161,470.667 347.701,474.513C349.241,478.359 353.608,480.226 357.453,478.686C404.144,459.981 436.88,418.484 446.277,371.191C447.086,367.127 444.445,363.179 440.383,362.372Z" style="fill-rule:nonzero;"/>
    <path d="M427.508,246.793C407.444,258.128 388.519,258.506 371.255,247.917C357.531,239.5 349.84,227.171 349.533,226.673C347.006,222.536 342.69,219.994 337.883,219.762C323.929,180.693 300.64,153.555 283.096,137.398C271.907,127.094 257.384,121.42 242.201,121.42C234.909,121.42 178.763,121.42 171.664,121.42C155.454,121.42 140.025,127.511 128.22,138.57C103.914,161.342 63.101,211.09 62.862,288.4C62.811,304.61 75.681,318.153 91.55,318.59C108.127,319.075 121.899,305.772 121.899,289.083C121.899,260.069 130.048,232.756 145.642,209L145.642,485.976C145.642,500.325 157.316,511.999 171.665,511.999L188.412,511.999C195.652,511.999 202.212,509.027 206.934,504.238C211.656,509.027 218.215,511.999 225.456,511.999L242.203,511.999C256.552,511.999 268.226,500.325 268.226,485.976L268.226,446.435C282.101,460.374 298.621,471.372 316.875,478.684C320.723,480.225 325.088,478.354 326.627,474.511C328.168,470.666 326.299,466.3 322.454,464.759C274.164,445.412 240.195,397.449 240.195,342.033L240.195,260.277C270.561,277.095 299.962,272.993 323.981,250.579C329.491,245.517 333.981,240.16 337.016,235.4C337.063,235.328 337.125,235.237 337.166,235.173C339.32,238.5 348.319,251.445 363.417,260.705C378.599,270.019 403.146,277.446 434.138,260.276L434.138,334.727C434.138,338.87 437.496,342.227 441.638,342.227C445.78,342.227 449.138,338.87 449.138,334.727L449.138,259.415C449.135,248.329 437.178,241.334 427.508,246.793ZM220.12,136.421L211.139,147.089C208.94,149.7 204.926,149.7 202.726,147.089L193.744,136.421L220.12,136.421ZM268.224,254.907L268.224,210.941C276.865,224.509 283.058,239.132 286.724,254.649C280.712,255.967 274.556,256.049 268.224,254.907ZM300.822,249.141C294.798,225.068 283.247,203.007 266.405,183.449C261.87,178.183 253.22,181.419 253.22,188.343L253.22,250.062C249.989,248.591 245.937,246.34 245.826,246.288C236.296,241.803 225.188,248.744 225.188,259.416L225.188,342.035C225.188,373.433 234.897,403.461 253.22,428.803L253.22,485.978L253.224,485.978C253.224,492.055 248.28,497 242.202,497L225.455,497C219.378,497 214.433,492.057 214.433,485.978L214.433,331.838C214.433,327.695 211.075,324.338 206.933,324.338C202.791,324.338 199.433,327.695 199.433,331.838L199.433,485.977C199.433,492.054 194.489,496.999 188.411,496.999L171.664,496.999C165.587,496.999 160.642,492.056 160.642,485.977L160.642,186.869C160.642,179.97 152.071,176.745 147.517,181.907C120.942,212.023 106.896,249.085 106.896,289.084C106.896,297.159 100.302,303.795 91.962,303.596C84.162,303.381 77.836,296.586 77.862,288.448C78.084,216.77 115.933,170.638 138.476,149.519C147.491,141.073 159.276,136.421 171.663,136.421L174.134,136.421L191.25,156.749C199.443,166.483 214.43,166.47 222.613,156.749L239.728,136.421L242.199,136.421C253.608,136.421 264.522,140.687 272.933,148.432C289.548,163.734 311.72,189.633 324.548,227.046C318.836,235.665 310.125,243.89 300.822,249.141Z" style="fill-rule:nonzero;"/>
    <g transform="matrix(1,0,0,1,-25.0986,35.2302)">
        <text x="265.684px" y="326.517px" style="font-family:'Lato-Medium', 'Lato', sans-serif;font-weight:500;font-size:64px;">R<tspan x="305.524px " y="326.517px ">O</tspan>DO</text>
    </g>
</svg>
