<?xml version="1.0" encoding="iso-8859-1"?>
<!-- Generator: Adobe Illustrator 19.0.0, SVG Export Plug-In . SVG Version: 6.00 Build 0)  -->
<svg version="1.1" id="Capa_1" xmlns="http://www.w3.org/2000/svg" xmlns:xlink="http://www.w3.org/1999/xlink" x="0px" y="0px"
	 viewBox="0 0 512 512" style="enable-background:new 0 0 512 512;" xml:space="preserve">
<g>
	<g>
		<path d="M470.192,46.036L408.755,5.824c-16.42-10.748-38.501-6.191-49.334,10.141L255.493,165.971L152.591,16.704
			c-5.229-7.893-13.204-13.301-22.479-15.238c-9.343-1.95-18.883-0.147-26.868,5.079L41.806,46.757
			C25.324,57.546,20.692,79.732,31.48,96.215l0.112,0.172L167.794,292.57c-23.847,23.244-38.683,55.691-38.683,91.544
			c0,70.517,57.37,127.887,127.887,127.887c70.518,0,127.888-57.37,127.888-127.887c0-35.911-14.884-68.405-38.799-91.656
			L480.358,95.734l0.162-0.242C491.308,79.01,486.675,56.824,470.192,46.036z M56.475,79.686c-1.641-2.646-0.877-6.144,1.742-7.857
			l61.439-40.212c1.738-1.136,3.46-1.002,4.333-0.819c0.873,0.183,2.506,0.747,3.643,2.485l0.099,0.15l155.451,225.493
			c-8.455-1.766-17.211-2.699-26.182-2.699c-23.894,0-46.274,6.593-65.429,18.046L56.475,79.686z M354.922,384.113
			c0,53.995-43.928,97.923-97.924,97.923s-97.923-43.928-97.923-97.923s43.928-97.924,97.923-97.924
			S354.922,330.118,354.922,384.113z M455.502,79L326.168,268.489l-52.493-76.144L384.148,32.887l0.221-0.328
			c1.138-1.737,2.771-2.302,3.643-2.484c0.874-0.183,2.597-0.318,4.334,0.819l61.438,40.212
			C456.414,72.829,457.173,76.351,455.502,79z"/>
	</g>
</g>
<g>
	<g>
		<path d="M327.647,363.583c-2.073-6.376-7.48-10.936-14.115-11.901l-28.23-4.101l-12.625-25.58l-0.001-0.002
			c-2.968-6.012-8.976-9.745-15.68-9.744c-6.703,0-12.711,3.736-15.677,9.746l-12.625,25.581l-28.231,4.102
			c-6.635,0.965-12.042,5.524-14.114,11.901c-2.071,6.375-0.376,13.243,4.425,17.922l20.427,19.912l-4.822,28.116
			c-1.134,6.609,1.532,13.162,6.958,17.102c3.065,2.226,6.65,3.357,10.26,3.357c2.779,0,5.572-0.67,8.152-2.028l25.249-13.275
			l25.247,13.274c5.934,3.12,12.989,2.612,18.415-1.329c5.424-3.94,8.09-10.493,6.957-17.101l-4.822-28.116l20.429-19.914
			C328.024,376.825,329.719,369.958,327.647,363.583z M277.184,384.539c-4.124,4.018-6.005,9.806-5.031,15.478l1.657,9.66
			l-8.676-4.56c-2.548-1.339-5.342-2.009-8.136-2.009c-2.794,0-5.589,0.669-8.136,2.009l-8.676,4.56l1.658-9.665
			c0.971-5.67-0.909-11.453-5.03-15.471l-7.018-6.842l9.699-1.409c5.697-0.828,10.618-4.405,13.165-9.564l4.338-8.789l4.341,8.794
			c2.548,5.158,7.468,8.731,13.162,9.56l9.699,1.409L277.184,384.539z"/>
	</g>
</g>
<g>
</g>
<g>
</g>
<g>
</g>
<g>
</g>
<g>
</g>
<g>
</g>
<g>
</g>
<g>
</g>
<g>
</g>
<g>
</g>
<g>
</g>
<g>
</g>
<g>
</g>
<g>
</g>
<g>
</g>
</svg>
