<?xml version="1.0" encoding="UTF-8" standalone="no"?><!DOCTYPE svg PUBLIC "-//W3C//DTD SVG 1.1//EN" "http://www.w3.org/Graphics/SVG/1.1/DTD/svg11.dtd"><svg width="100%" height="100%" viewBox="0 0 720 585" version="1.1" xmlns="http://www.w3.org/2000/svg" xmlns:xlink="http://www.w3.org/1999/xlink" xml:space="preserve" xmlns:serif="http://www.serif.com/" style="fill-rule:evenodd;clip-rule:evenodd;stroke-linecap:round;stroke-linejoin:round;stroke-miterlimit:1.5;"><rect x="0" y="-676.092" width="720" height="676.731" style="fill:#fcfcfc;"/><rect x="0" y="-1.415" width="720" height="586.423" style="fill:#fff;"/><rect x="335" y="550.926" width="50" height="5" style="fill:#16a085;"/><path d="M314.782,65.639c0,-6.63 -2.634,-12.989 -7.323,-17.677c-4.688,-4.689 -11.047,-7.323 -17.677,-7.323c-74.487,0 -289.782,0 -289.782,0l0,240c0,0 215.295,0 289.782,0c6.63,0 12.989,-2.634 17.677,-7.322c4.689,-4.688 7.323,-11.047 7.323,-17.678c0,-46.083 0,-143.916 0,-190Z" style="fill:#333;fill-opacity:0.14902;"/><rect x="3.338" y="60.639" width="281.443" height="200" style="fill:#333;fill-opacity:0.14902;"/><path d="M720.18,290.926c0,0 -215.295,0 -289.781,0c-6.631,0 -12.99,2.634 -17.678,7.322c-4.688,4.689 -7.322,11.048 -7.322,17.678c0,46.083 0,143.917 0,190c0,6.63 2.634,12.989 7.322,17.678c4.688,4.688 11.047,7.322 17.678,7.322c74.486,0 289.781,0 289.781,0l0,-240Z" style="fill:#333;fill-opacity:0.14902;"/><rect x="435.411" y="310.926" width="282.594" height="200" style="fill:#333;fill-opacity:0.14902;"/><rect x="-0.18" y="585.008" width="720" height="250" style="fill:#fff;fill-opacity:0;"/><clipPath id="_clip1"><rect x="-0.18" y="585.008" width="720" height="250"/></clipPath><g clip-path="url(#_clip1)"></g><rect x="-0.18" y="585.008" width="720" height="250" style="fill:none;stroke:#000;stroke-opacity:0.45098;stroke-width:0.55px;"/><rect x="-0.18" y="585.008" width="718.005" height="250" style="fill:#1a1a1a;fill-opacity:0.294118;stroke:#000;stroke-opacity:0.45098;stroke-width:0.55px;"/></svg>