<?xml version="1.0" standalone="no"?>
<!DOCTYPE svg PUBLIC "-//W3C//DTD SVG 20010904//EN"
 "http://www.w3.org/TR/2001/REC-SVG-20010904/DTD/svg10.dtd">
<svg version="1.0" xmlns="http://www.w3.org/2000/svg"
 width="125.000000pt" height="125.000000pt" viewBox="0 0 125.000000 125.000000"
 preserveAspectRatio="xMidYMid meet">
<metadata>
Created by potrace 1.11, written by Peter Selinger 2001-2013
</metadata>
<g transform="translate(0.000000,125.000000) scale(0.100000,-0.100000)"
fill="#000000" stroke="none">
<path d="M583 1235 c-18 -8 -54 -29 -80 -47 -43 -29 -57 -33 -140 -38 -84 -6
-96 -9 -123 -35 -17 -16 -38 -54 -50 -90 -21 -62 -40 -85 -113 -139 -21 -15
-46 -43 -55 -62 -15 -33 -15 -38 6 -109 27 -92 27 -93 1 -175 -32 -99 -22
-122 98 -217 32 -26 46 -47 62 -96 13 -38 34 -75 51 -92 27 -26 38 -29 117
-33 82 -4 92 -7 149 -43 85 -55 112 -61 163 -38 23 10 57 30 77 45 31 24 48
29 127 34 106 7 136 22 160 78 9 20 25 58 35 83 12 29 34 57 58 75 108 78 118
104 84 215 l-23 72 23 72 c35 112 22 145 -92 228 -26 19 -43 43 -57 83 -48
126 -71 144 -189 144 -64 0 -73 3 -138 44 -83 52 -109 59 -151 41z m139 -49
c62 -40 73 -43 153 -49 102 -7 124 -19 149 -78 10 -24 25 -61 34 -83 10 -24
35 -52 67 -76 27 -20 58 -47 69 -58 23 -27 24 -81 2 -145 -20 -60 -20 -91 0
-149 8 -25 14 -65 12 -89 -3 -40 -8 -47 -72 -99 -62 -50 -72 -63 -97 -130 -16
-41 -36 -81 -44 -89 -10 -11 -46 -18 -111 -23 -90 -6 -99 -9 -157 -48 -97 -65
-117 -65 -214 0 -54 36 -69 42 -134 46 -133 9 -145 18 -180 121 -16 49 -30 70
-62 96 -91 72 -107 93 -107 135 0 22 7 59 15 82 19 54 19 106 0 160 -8 23 -15
58 -15 77 0 37 20 61 107 130 32 26 46 47 63 97 22 69 58 116 87 117 109 3
185 18 215 41 94 71 129 73 220 14z"/>
<path d="M590 1213 c-8 -4 -37 -21 -63 -39 -60 -41 -104 -54 -185 -54 -79 0
-100 -18 -131 -113 -18 -52 -31 -74 -59 -95 -67 -50 -112 -99 -112 -122 0 -12
9 -53 21 -91 l21 -69 -21 -69 c-35 -114 -31 -125 63 -199 58 -46 66 -57 86
-116 34 -103 40 -108 152 -116 91 -7 98 -9 159 -51 81 -55 115 -57 184 -9 66
46 108 59 185 60 41 0 73 6 87 15 12 8 34 48 49 87 28 73 40 89 128 161 52 43
58 71 31 147 -8 23 -15 62 -15 85 0 23 7 62 15 85 28 78 21 104 -37 152 -87
73 -94 82 -122 156 -15 40 -37 79 -49 87 -13 9 -44 15 -77 15 -81 1 -122 13
-191 59 -58 39 -85 47 -119 34z m110 -44 c64 -46 102 -59 177 -59 85 0 105
-13 132 -86 35 -91 47 -108 110 -153 75 -52 81 -72 52 -161 -26 -82 -26 -83 1
-175 26 -90 22 -102 -57 -159 -64 -46 -76 -62 -99 -133 -29 -89 -39 -96 -147
-103 -90 -6 -97 -8 -156 -48 -40 -27 -73 -42 -93 -42 -20 0 -53 15 -93 42 -59
40 -67 42 -154 48 -50 3 -98 12 -107 19 -8 7 -25 43 -37 79 -23 68 -42 92
-127 160 -23 18 -44 43 -47 55 -3 12 3 51 15 86 25 79 25 96 -1 182 -20 64
-20 71 -5 94 9 13 41 43 71 65 58 43 72 64 99 147 9 28 24 57 33 65 9 8 53 15
107 18 87 5 94 7 151 47 76 53 114 56 175 12z"/>
<path d="M620 1154 c-6 -14 -10 -33 -11 -42 0 -13 -2 -13 -9 3 -4 12 -15 27
-24 34 -13 11 -17 10 -26 -14 -5 -14 -10 -33 -10 -42 0 -14 -3 -13 -21 3 -17
16 -22 16 -29 4 -6 -8 -10 -22 -10 -30 0 -10 -5 -7 -16 8 -26 38 -63 18 -47
-25 4 -10 -8 -3 -25 15 -46 49 -67 36 -47 -27 l8 -25 -32 27 c-54 45 -74 29
-42 -34 l21 -39 -25 6 c-27 7 -34 -11 -16 -45 9 -15 6 -17 -21 -13 -29 4 -30
3 -24 -21 6 -25 4 -25 -28 -20 -41 6 -55 -11 -30 -38 17 -18 16 -19 -24 -17
-23 1 -45 -2 -49 -5 -9 -9 25 -45 51 -54 20 -6 20 -7 -4 -13 -38 -9 -37 -37 2
-53 l33 -14 -28 -6 c-34 -9 -35 -35 -1 -43 l26 -7 -31 -13 c-36 -15 -41 -39
-8 -48 22 -6 22 -7 -5 -22 -35 -18 -36 -42 -2 -50 l25 -6 -33 -28 c-29 -25
-31 -29 -15 -35 9 -4 32 -5 51 -3 33 4 33 3 19 -19 -14 -20 -13 -23 1 -29 9
-3 28 -3 44 1 22 5 25 4 15 -6 -7 -7 -13 -22 -13 -32 0 -16 5 -18 25 -13 l26
7 -16 -32 c-20 -38 -8 -57 24 -40 25 14 25 13 6 -33 -14 -33 -14 -37 0 -43 9
-3 29 4 45 15 l29 22 -2 -27 c-3 -36 17 -40 48 -9 l25 25 0 -23 c0 -34 11 -39
37 -14 l23 21 0 -27 c0 -33 26 -45 44 -21 12 17 14 15 20 -18 8 -44 29 -48 49
-11 l14 27 6 -29 c4 -16 11 -36 17 -44 9 -13 12 -12 25 4 8 11 15 33 15 49 l0
30 22 -28 c20 -26 22 -27 35 -9 7 10 13 27 13 38 0 19 0 19 14 1 17 -23 46
-13 46 16 l0 22 24 -22 c29 -28 50 -19 41 17 -6 25 -6 25 30 -7 51 -45 73 -24
40 39 l-15 29 30 -17 c42 -24 55 -7 30 40 -15 29 -16 36 -5 32 8 -4 22 -3 31
0 15 6 15 8 0 31 l-16 24 31 -11 c42 -14 60 3 34 32 -19 21 -19 21 22 14 53
-8 66 10 30 42 l-27 23 33 -5 c17 -3 38 0 46 5 13 8 13 12 1 26 -8 10 -26 22
-40 27 l-25 11 25 6 c31 8 32 33 3 46 -26 11 -30 25 -8 25 8 0 15 9 15 20 0
11 -7 20 -15 20 -23 0 -18 16 11 29 32 14 26 34 -12 41 l-29 5 32 14 c17 7 39
21 49 32 15 17 15 19 0 25 -9 3 -31 4 -50 2 l-34 -4 24 23 c34 31 22 47 -29
39 -35 -6 -38 -5 -27 9 21 26 6 45 -29 35 -30 -8 -30 -8 -15 16 15 22 15 24 0
30 -9 3 -23 4 -31 0 -13 -5 -13 -2 1 25 8 17 13 37 10 45 -5 13 -10 13 -35 -1
l-30 -15 15 35 c24 59 -1 73 -49 28 l-29 -28 7 26 c9 37 -11 46 -40 19 l-23
-22 -7 21 c-7 23 -25 27 -43 9 -9 -9 -12 -8 -12 8 0 11 -6 28 -13 38 -12 16
-14 16 -26 2 -20 -24 -28 -20 -35 19 -8 42 -32 47 -46 9z m38 -89 c0 -27 -3
-61 -8 -75 -7 -24 -8 -24 -16 -5 -11 25 -11 134 0 160 8 19 9 19 16 -5 5 -14
8 -47 8 -75z m-68 20 c8 -27 9 -59 5 -82 l-8 -38 -13 30 c-15 34 -19 135 -5
135 4 0 14 -20 21 -45z m116 -95 l-14 -35 -7 46 c-5 34 -2 55 11 85 l18 39 4
-50 c2 -29 -3 -65 -12 -85z m-181 70 c8 -16 15 -46 15 -67 l-1 -38 -19 35
c-17 31 -28 100 -15 100 2 0 11 -13 20 -30z m-82 -103 l16 -52 -35 40 c-38 43
-57 76 -69 115 -7 23 -4 22 32 -13 26 -25 45 -55 56 -90z m50 25 c4 -20 5 -37
3 -39 -8 -8 -55 75 -60 107 l-7 35 29 -33 c16 -18 32 -50 35 -70z m287 61 c0
-16 -11 -46 -25 -68 l-25 -40 6 40 c7 50 24 95 35 95 5 0 9 -12 9 -27z m60
-25 c-6 -18 -22 -46 -36 -63 l-26 -30 7 40 c7 42 56 117 63 97 2 -7 -1 -26 -8
-44z m90 37 c0 -18 -53 -105 -79 -129 -17 -17 -31 -27 -31 -24 0 18 41 97 64
126 25 29 46 41 46 27z m-599 -42 c34 -31 79 -98 79 -118 0 -17 -82 61 -104
99 -40 69 -35 73 25 19z m619 -60 c-11 -21 -39 -50 -60 -66 l-39 -27 25 45
c23 41 83 99 92 90 2 -2 -6 -21 -18 -42z m-333 0 c-3 -10 -5 -4 -5 12 0 17 2
24 5 18 2 -7 2 -21 0 -30z m50 -5 c-3 -7 -5 -2 -5 12 0 14 2 19 5 13 2 -7 2
-19 0 -25z m-87 -10 c0 -5 -4 -8 -10 -8 -5 0 -10 10 -10 23 0 18 2 19 10 7 5
-8 10 -18 10 -22z m132 0 c-8 -8 -9 -4 -5 13 4 13 8 18 11 10 2 -7 -1 -18 -6
-23z m-363 -37 c28 -39 26 -44 -8 -26 -29 15 -71 60 -71 77 0 16 58 -21 79
-51z m131 29 c6 -11 8 -20 6 -20 -3 0 -10 9 -16 20 -6 11 -8 20 -6 20 3 0 10
-9 16 -20z m280 -5 c0 -8 -4 -15 -10 -15 -5 0 -7 7 -4 15 4 8 8 15 10 15 2 0
4 -7 4 -15z m41 -22 c-12 -20 -14 -14 -5 12 4 9 9 14 11 11 3 -2 0 -13 -6 -23z
m190 9 c-11 -20 -34 -41 -74 -66 -27 -17 -28 -17 -18 1 20 33 36 50 66 66 38
20 38 20 26 -1z m-543 -28 c-4 -3 -12 5 -18 18 -12 22 -12 22 6 6 10 -10 15
-20 12 -24z m129 30 c-3 -3 -12 -4 -19 -1 -8 3 -5 6 6 6 11 1 17 -2 13 -5z
m120 0 c-3 -3 -12 -4 -19 -1 -8 3 -5 6 6 6 11 1 17 -2 13 -5z m153 -24 c-6
-11 -16 -20 -22 -20 -6 0 -3 9 7 20 10 11 20 20 22 20 2 0 -1 -9 -7 -20z
m-530 -36 l35 -36 -40 17 c-22 9 -51 27 -65 42 l-25 25 30 -6 c17 -4 46 -23
65 -42z m436 16 c69 -35 71 -35 53 -12 -13 15 -12 16 4 3 9 -8 15 -16 12 -19
-7 -8 26 -43 35 -37 4 3 14 -3 21 -13 13 -15 12 -16 -3 -3 -23 17 -23 15 7
-42 48 -96 42 -207 -16 -286 -36 -51 -37 -62 -1 -30 15 13 9 4 -13 -19 -22
-24 -49 -48 -60 -54 -11 -6 -4 4 15 20 44 40 32 41 -20 3 -108 -78 -279 -61
-377 37 -55 55 -78 114 -77 202 0 117 50 196 156 249 51 26 73 31 133 31 60 0
82 -5 131 -30z m20 14 c18 -14 18 -14 -6 -3 -31 14 -36 19 -24 19 6 0 19 -7
30 -16z m-375 -11 c13 -16 12 -17 -3 -4 -10 7 -18 15 -18 17 0 8 8 3 21 -13z
m639 -1 c0 -16 -45 -49 -90 -66 l-45 -18 30 32 c37 39 105 73 105 52z m-795
-31 c22 -10 48 -27 58 -39 18 -20 18 -20 -25 -9 -37 9 -118 53 -118 63 0 10
50 1 85 -15z m635 9 c0 -5 -5 -10 -11 -10 -5 0 -7 5 -4 10 3 6 8 10 11 10 2 0
4 -4 4 -10z m-505 -18 c-3 -3 -11 0 -18 7 -9 10 -8 11 6 5 10 -3 15 -9 12 -12z
m45 15 c0 -2 -10 -12 -22 -23 l-23 -19 19 23 c18 21 26 27 26 19z m500 -21 c0
-2 -8 -10 -17 -17 -16 -13 -17 -12 -4 4 13 16 21 21 21 13z m170 -12 c-19 -21
-46 -35 -105 -50 l-50 -13 35 29 c34 29 76 47 114 49 16 1 16 -1 6 -15z m-740
-20 c0 -2 -9 0 -20 6 -11 6 -20 13 -20 16 0 2 9 0 20 -6 11 -6 20 -13 20 -16z
m-171 5 c24 -5 63 -21 85 -35 l41 -25 -55 7 c-48 6 -150 46 -150 59 0 8 31 5
79 -6z m766 -19 c-3 -5 -14 -10 -23 -9 -14 0 -13 2 3 9 27 11 27 11 20 0z
m-620 -20 c3 -5 2 -10 -4 -10 -5 0 -13 5 -16 10 -3 6 -2 10 4 10 5 0 13 -4 16
-10z m23 -15 c-6 -14 -13 -23 -15 -21 -5 5 15 46 22 46 3 0 -1 -11 -7 -25z
m802 19 c0 -13 -115 -54 -153 -54 l-42 0 42 24 c23 14 50 26 60 29 26 7 93 8
93 1z m-190 -28 c0 -2 -7 -7 -16 -10 -8 -3 -12 -2 -9 4 6 10 25 14 25 6z
m-705 -26 l40 -19 -55 0 c-32 0 -71 8 -95 19 l-40 19 55 0 c32 0 71 -8 95 -19z
m865 -18 c0 -17 -52 -32 -108 -31 l-57 1 50 18 c53 19 115 26 115 12z m-820
-22 c0 -5 -7 -7 -15 -4 -8 4 -15 8 -15 10 0 2 7 4 15 4 8 0 15 -4 15 -10z
m-53 -12 l28 -11 -39 -7 c-47 -9 -117 7 -95 21 20 12 72 11 106 -3z m70 -65
c-2 -16 -4 -3 -4 27 0 30 2 43 4 28 2 -16 2 -40 0 -55z m620 0 c-2 -16 -4 -5
-4 22 0 28 2 40 4 28 2 -13 2 -35 0 -50z m142 41 c17 -4 31 -10 31 -14 0 -13
-72 -20 -110 -11 l-35 8 35 11 c45 13 42 13 79 6z m-786 -11 c-7 -2 -19 -2
-25 0 -7 3 -2 5 12 5 14 0 19 -2 13 -5z m-28 -23 c-8 -13 -63 -22 -110 -18
-39 4 -39 4 -15 15 31 14 134 17 125 3z m712 -6 c-3 -3 -12 -4 -19 -1 -8 3 -5
6 6 6 11 1 17 -2 13 -5z m-682 -14 c-3 -5 -16 -10 -28 -9 -20 1 -20 2 3 9 14
4 26 8 28 9 2 1 0 -3 -3 -9z m804 -11 c36 -13 26 -29 -18 -29 -35 0 -101 22
-95 31 7 13 75 11 113 -2z m-857 -34 c-35 -16 -71 -25 -100 -24 l-47 1 50 24
c32 15 68 24 100 24 l50 0 -53 -25z m85 -7 c-3 -8 -6 -5 -6 6 -1 11 2 17 5 13
3 -3 4 -12 1 -19z m593 -15 c-11 -17 -11 -17 -6 0 3 10 6 24 7 30 0 9 2 9 5 0
3 -7 0 -20 -6 -30z m63 30 c-7 -2 -19 -2 -25 0 -7 3 -2 5 12 5 14 0 19 -2 13
-5z m-688 -13 c-27 -12 -43 -12 -25 0 8 5 22 9 30 9 10 0 8 -3 -5 -9z m802
-26 c24 -9 46 -20 49 -26 12 -19 -104 0 -154 26 l-46 23 54 -4 c30 -2 74 -11
97 -19z m-807 2 c0 -2 -17 -15 -39 -29 -33 -22 -139 -52 -149 -42 -7 7 93 59
127 66 45 9 61 10 61 5z m30 -15 c0 -5 -10 -11 -22 -14 -22 -6 -22 -6 -4 8 23
17 26 18 26 6z m719 -33 c13 -4 35 -17 49 -28 21 -17 22 -20 6 -20 -36 0 -90
20 -124 46 l-35 25 40 -7 c22 -4 51 -11 64 -16z m-735 -9 c-34 -37 -125 -75
-124 -51 1 18 73 55 139 71 2 1 -4 -8 -15 -20z m631 11 c3 -5 2 -10 -4 -10 -5
0 -13 5 -16 10 -3 6 -2 10 4 10 5 0 13 -4 16 -10z m-595 -10 c0 -5 -5 -10 -11
-10 -5 0 -7 5 -4 10 3 6 8 10 11 10 2 0 4 -4 4 -10z m110 -87 c0 -8 -9 0 -50
45 l-45 47 48 -45 c26 -24 47 -45 47 -47z m535 52 c36 -15 76 -55 54 -55 -25
1 -93 36 -114 60 l-20 23 25 -8 c14 -4 39 -13 55 -20z m-654 -3 c-17 -33 -86
-80 -98 -68 -9 9 28 46 67 67 44 23 43 23 31 1z m544 -22 c3 -5 1 -10 -4 -10
-6 0 -11 5 -11 10 0 6 2 10 4 10 3 0 8 -4 11 -10z m88 -29 c11 -9 23 -24 28
-33 9 -16 7 -17 -18 -7 -32 12 -61 36 -74 61 -9 16 -7 17 18 6 15 -7 36 -19
46 -27z m-610 -2 c-18 -31 -80 -89 -96 -89 -18 0 27 63 65 90 22 17 43 30 45
30 2 0 -4 -14 -14 -31z m33 3 c-18 -16 -18 -16 -6 6 6 13 14 21 18 18 3 -4 -2
-14 -12 -24z m562 -72 c36 -47 36 -61 -2 -36 -33 21 -57 47 -80 87 l-20 33 35
-21 c19 -12 49 -40 67 -63z m-559 23 c-18 -42 -96 -129 -107 -119 -9 10 45 95
82 129 23 20 42 37 43 37 1 0 -7 -21 -18 -47z m455 31 c5 -14 4 -15 -9 -4 -17
14 -19 20 -6 20 5 0 12 -7 15 -16z m-404 2 c0 -2 -7 -9 -15 -16 -13 -11 -14
-10 -9 4 5 14 24 23 24 12z m360 -26 c6 -11 8 -20 6 -20 -3 0 -10 9 -16 20 -6
11 -8 20 -6 20 3 0 10 -9 16 -20z m106 -83 c14 -27 23 -52 20 -55 -12 -11 -75
61 -95 109 l-20 49 35 -28 c20 -15 47 -49 60 -75z m-471 41 c-15 -42 -75 -115
-75 -91 0 32 74 152 86 140 2 -2 -3 -24 -11 -49z m168 35 c-7 -2 -19 -2 -25 0
-7 3 -2 5 12 5 14 0 19 -2 13 -5z m70 0 c-7 -2 -19 -2 -25 0 -7 3 -2 5 12 5
14 0 19 -2 13 -5z m-192 -71 c-6 -22 -18 -45 -26 -52 -25 -21 -19 44 8 85 26
40 33 26 18 -33z m338 19 c10 -14 22 -42 26 -61 7 -31 6 -33 -9 -21 -22 19
-52 71 -60 105 -7 26 -6 28 9 16 9 -7 24 -25 34 -39z m-296 -78 l-17 -38 -4
39 c-2 24 4 56 15 80 l18 41 3 -42 c2 -24 -4 -57 -15 -80z m84 85 c-3 -7 -5
-2 -5 12 0 14 2 19 5 13 2 -7 2 -19 0 -25z m50 10 c-3 -8 -6 -5 -6 6 -1 11 2
17 5 13 3 -3 4 -12 1 -19z m119 -76 c4 -18 4 -35 1 -39 -11 -11 -47 63 -47 97
l0 35 20 -30 c11 -16 23 -45 26 -63z m-188 -49 c-14 -51 -28 -49 -29 4 -2 59
0 69 13 102 11 25 12 24 18 -24 4 -27 3 -64 -2 -82z m67 -21 c-4 -30 -10 -50
-15 -46 -16 17 -26 108 -17 154 l10 45 14 -50 c10 -33 13 -67 8 -103z m63 30
l-3 -47 -17 32 c-11 20 -18 53 -18 85 l1 53 20 -38 c14 -26 19 -53 17 -85z"/>
<path d="M469 714 c-30 -88 -49 -128 -61 -132 -10 -2 -15 -8 -12 -13 7 -12 84
-11 84 1 0 6 -9 10 -19 10 -19 0 -19 3 -7 38 11 33 17 37 46 37 29 0 35 -4 46
-37 12 -36 12 -38 -7 -38 -11 0 -17 -4 -14 -10 3 -5 30 -10 60 -10 30 0 57 5
60 10 3 6 -2 10 -13 10 -16 0 -27 23 -63 130 -24 72 -47 130 -50 130 -4 0 -26
-57 -50 -126z m50 -16 c1 -12 -6 -18 -19 -18 -24 0 -23 -2 -8 40 10 30 12 32
19 14 4 -10 8 -27 8 -36z"/>
<path d="M640 664 c0 -27 4 -43 10 -39 6 3 10 15 10 25 0 24 29 40 70 40 40 0
40 1 -44 -128 -36 -57 -66 -105 -66 -108 0 -2 48 -3 108 -2 l107 3 3 39 c4 49
-13 70 -23 27 -4 -17 -15 -36 -25 -41 -22 -12 -100 -14 -100 -2 1 4 32 54 69
112 38 58 67 108 64 113 -2 4 -44 7 -94 7 l-89 0 0 -46z"/>
</g>
</svg>
