<?xml version="1.0" encoding="iso-8859-1"?>
<!-- Generator: Adobe Illustrator 19.0.0, SVG Export Plug-In . SVG Version: 6.00 Build 0)  -->
<svg version="1.1" id="Capa_1" xmlns="http://www.w3.org/2000/svg" xmlns:xlink="http://www.w3.org/1999/xlink" x="0px" y="0px"
	 viewBox="0 0 512.001 512.001" style="enable-background:new 0 0 512.001 512.001;" xml:space="preserve">
<g>
	<g>
		<path d="M478.808,362.37H351.345V260.553c0-18.303-14.89-33.193-33.193-33.193H193.848c-18.303,0-33.193,14.89-33.193,33.193
			v41.964H33.193C14.89,302.517,0,317.407,0,335.709v129.642c0,18.303,14.89,33.193,33.193,33.193h445.616
			c18.303,0,33.193-14.89,33.193-33.193v-69.788C512.001,377.26,497.111,362.37,478.808,362.37z M33.193,468.51
			c-1.742,0-3.159-1.417-3.159-3.159V335.709c0-1.742,1.417-3.159,3.159-3.159h127.462V468.51H33.193z M321.311,468.51H190.689
			V260.553c0-1.742,1.418-3.159,3.159-3.159h124.305c1.742,0,3.159,1.417,3.159,3.159V468.51z M481.967,465.351L481.967,465.351
			c-0.001,1.742-1.418,3.159-3.16,3.159H351.345v-76.105h127.463c1.742,0,3.159,1.417,3.159,3.159V465.351z"/>
	</g>
</g>
<g>
	<g>
		<path d="M274.004,306.211c-0.007-0.284-0.022-0.571-0.044-0.857c-0.017-0.215-0.037-0.429-0.063-0.643
			c-0.033-0.27-0.075-0.54-0.123-0.809c-0.04-0.224-0.082-0.446-0.131-0.668c-0.056-0.25-0.122-0.498-0.191-0.745
			c-0.065-0.232-0.132-0.463-0.208-0.69c-0.076-0.229-0.161-0.455-0.249-0.681c-0.092-0.238-0.188-0.475-0.292-0.707
			c-0.093-0.208-0.194-0.412-0.297-0.618c-0.122-0.242-0.249-0.482-0.384-0.717c-0.108-0.188-0.221-0.372-0.338-0.557
			c-0.152-0.24-0.311-0.476-0.477-0.707c-0.066-0.092-0.12-0.189-0.188-0.279c-0.064-0.086-0.137-0.16-0.203-0.244
			c-0.167-0.212-0.339-0.419-0.518-0.622c-0.159-0.182-0.32-0.362-0.487-0.536c-0.161-0.167-0.328-0.327-0.497-0.488
			c-0.195-0.185-0.391-0.367-0.595-0.541c-0.159-0.135-0.323-0.262-0.488-0.391c-0.221-0.172-0.441-0.342-0.671-0.502
			c-0.172-0.12-0.35-0.23-0.528-0.343c-0.228-0.144-0.456-0.287-0.69-0.419c-0.203-0.114-0.411-0.217-0.621-0.321
			c-0.217-0.108-0.433-0.218-0.655-0.315c-0.237-0.105-0.481-0.197-0.724-0.29c-0.205-0.078-0.408-0.157-0.616-0.225
			c-0.257-0.085-0.519-0.157-0.782-0.229c-0.208-0.056-0.415-0.113-0.627-0.161c-0.254-0.057-0.513-0.104-0.772-0.148
			c-0.234-0.04-0.469-0.078-0.705-0.107c-0.234-0.029-0.471-0.049-0.708-0.067c-0.272-0.021-0.545-0.035-0.818-0.041
			c-0.105-0.002-0.208-0.016-0.313-0.016c-0.112,0-0.221,0.014-0.333,0.017c-0.286,0.006-0.572,0.021-0.858,0.043
			c-0.216,0.017-0.43,0.037-0.644,0.063c-0.27,0.033-0.539,0.075-0.807,0.123c-0.225,0.04-0.449,0.082-0.67,0.132
			c-0.249,0.056-0.496,0.121-0.743,0.191c-0.233,0.065-0.465,0.132-0.693,0.208c-0.228,0.076-0.454,0.161-0.679,0.248
			c-0.239,0.093-0.477,0.188-0.709,0.293c-0.207,0.093-0.411,0.193-0.615,0.296c-0.243,0.123-0.483,0.25-0.719,0.385
			c-0.187,0.108-0.372,0.221-0.556,0.337c-0.24,0.152-0.477,0.311-0.708,0.477c-0.092,0.066-0.188,0.12-0.279,0.188l-24.167,18.13
			c-6.635,4.977-7.978,14.39-3.001,21.024c2.95,3.933,7.458,6.007,12.025,6.007c3.135,0,6.299-0.979,9-3.005l0.139-0.104v30.503
			c0,8.293,6.724,15.017,15.017,15.017c8.293,0,15.017-6.724,15.017-15.017v-60.542
			C274.021,306.432,274.007,306.323,274.004,306.211z"/>
	</g>
</g>
<g>
	<g>
		<path d="M339.872,74.392c-2.066-6.357-7.459-10.904-14.076-11.866l-37.423-5.438l-16.736-33.911
			c-2.959-5.995-8.95-9.719-15.636-9.719c-6.685,0-12.676,3.724-15.636,9.719l-16.736,33.911l-37.423,5.438
			c-6.616,0.961-12.01,5.508-14.076,11.867c-2.066,6.359-0.375,13.208,4.412,17.874l27.079,26.396l-6.393,37.274
			c-1.129,6.589,1.529,13.123,6.938,17.053s12.445,4.437,18.362,1.326L256,156.721l33.472,17.597
			c2.574,1.354,5.36,2.022,8.131,2.022c3.6,0,7.177-1.128,10.234-3.35c5.409-3.93,8.066-10.466,6.936-17.053l-6.392-37.272
			l27.082-26.398C340.248,87.599,341.938,80.75,339.872,74.392z M282.67,101.779c-4.111,4.009-5.985,9.78-5.013,15.432l3.198,18.642
			l-16.742-8.802c-5.081-2.671-11.147-2.67-16.227,0l-16.742,8.802l3.198-18.645c0.969-5.655-0.905-11.424-5.015-15.431
			l-13.544-13.203l18.716-2.716c5.681-0.825,10.59-4.391,13.131-9.539L256,59.357l8.37,16.96c2.541,5.149,7.449,8.715,13.129,9.539
			l18.717,2.719L282.67,101.779z"/>
	</g>
</g>
<g>
</g>
<g>
</g>
<g>
</g>
<g>
</g>
<g>
</g>
<g>
</g>
<g>
</g>
<g>
</g>
<g>
</g>
<g>
</g>
<g>
</g>
<g>
</g>
<g>
</g>
<g>
</g>
<g>
</g>
</svg>
