<?xml version="1.0" encoding="UTF-8" standalone="no"?>
<!DOCTYPE svg PUBLIC "-//W3C//DTD SVG 1.1//EN" "http://www.w3.org/Graphics/SVG/1.1/DTD/svg11.dtd">
<svg width="100%" height="100%" viewBox="0 0 22 22" version="1.1" xmlns="http://www.w3.org/2000/svg" xmlns:xlink="http://www.w3.org/1999/xlink" xml:space="preserve" xmlns:serif="http://www.serif.com/" style="fill-rule:evenodd;clip-rule:evenodd;stroke-linejoin:round;stroke-miterlimit:1.41421;">
    <path d="M1.673,13.452C1.609,13.503 1.546,13.556 1.482,13.605C1.602,13.615 1.722,13.626 1.841,13.635C2.862,14.079 4.207,13.89 4.779,15.229C4.892,15.493 5.276,16.122 5.651,15.731C6.505,14.835 6.931,15.564 7.662,15.911C8.614,16.365 9.616,16.62 10.19,17.609C10.289,17.777 10.529,17.914 10.685,17.738C11.278,17.068 11.574,17.606 11.89,18.015C12.132,18.327 12.328,18.332 12.744,18.228C14.14,17.865 15.561,17.216 16.959,18.397C17.288,18.675 17.897,18.954 18.532,18.644C18.006,17.731 18.206,16.941 19.055,16.381C20.877,15.187 21.82,13.814 20.189,11.78C19.776,11.266 20.693,10.544 20.069,10.154C19.005,9.491 19.538,9.193 20.24,8.823C20.448,8.713 20.686,8.563 20.79,8.37C21.147,7.689 19.561,3.889 18.837,3.628C18.705,3.583 18.557,3.521 18.426,3.54C15.845,3.895 13.256,3.047 10.673,3.585C10.215,3.682 9.491,3.458 9.585,3.137C9.909,2.03 9.086,2.324 8.647,2.272C7.807,2.176 6.983,2.371 6.224,2.738C4.562,3.544 2.906,4.38 1.062,4.668C0.228,4.798 0.31,5.545 0.348,5.893C0.427,6.583 0.702,7.203 0.06,7.777C-0.105,7.927 0.108,8.118 0.226,8.266C1.439,9.791 1.231,11.714 1.673,13.452Z" style="fill-rule:nonzero;"/>
    <g transform="matrix(0.87287,0,0,0.87287,1.33667,1.33663)">
        <path d="M1.673,13.452C1.609,13.503 1.546,13.556 1.482,13.605C1.602,13.615 1.722,13.626 1.841,13.635C2.862,14.079 3.734,13.634 4.306,14.973C4.419,15.237 4.803,15.866 5.178,15.475C6.032,14.579 6.931,15.564 7.662,15.911C8.614,16.365 9.616,16.62 10.19,17.609C10.289,17.777 10.529,17.914 10.685,17.738C11.278,17.068 11.574,17.606 11.89,18.015C12.132,18.327 12.328,18.332 12.744,18.228C14.14,17.865 15.561,17.216 16.959,18.397C17.288,18.675 17.897,18.954 18.532,18.644C18.006,17.731 18.206,16.941 19.055,16.381C20.877,15.187 21.82,13.814 20.189,11.78C19.776,11.266 20.693,10.544 20.069,10.154C19.005,9.491 19.538,9.193 20.24,8.823C20.448,8.713 20.686,8.563 20.79,8.37C21.147,7.689 19.561,3.889 18.837,3.628C18.705,3.583 18.557,3.521 18.426,3.54C15.845,3.895 13.256,3.047 10.673,3.585C10.215,3.682 8.628,3.025 8.722,2.704C9.046,1.597 8.022,2.088 7.583,2.036C6.743,1.94 6.12,2.447 5.361,2.814C3.699,3.62 2.906,4.38 1.062,4.668C0.228,4.798 0.31,5.545 0.348,5.893C0.427,6.583 0.702,7.203 0.06,7.777C-0.105,7.927 0.108,8.118 0.226,8.266C1.439,9.791 1.231,11.714 1.673,13.452Z" style="fill:rgb(248,248,248);fill-rule:nonzero;"/>
    </g>
    <g transform="matrix(-0.00415342,0,0,0.0038433,8.53271,13.4673)">
        <g transform="matrix(1,0,0,1,-215.057,-215.057)">
            <path id="Facebook_Places" d="M356.208,107.051C354.677,101.313 351.568,95.199 349.268,89.846C321.746,23.704 261.611,0 213.055,0C148.054,0 76.463,43.586 66.905,133.427L66.905,151.782C66.905,152.548 67.169,159.429 67.544,162.871C72.902,205.687 106.687,251.191 131.919,294.007C159.065,339.88 187.233,385.006 215.14,430.113C232.348,400.677 249.494,370.854 266.31,342.18C270.893,333.765 276.213,325.355 280.801,317.323C283.859,311.975 289.701,306.627 292.37,301.651C319.515,251.952 363.208,201.869 363.208,152.547L363.208,132.285C363.209,126.938 356.581,108.204 356.208,107.051ZM214.245,199.193C195.138,199.193 174.224,189.639 163.901,163.254C162.363,159.054 162.487,150.637 162.487,149.866L162.487,138.014C162.487,104.378 191.047,89.082 215.893,89.082C246.481,89.082 270.138,113.554 270.138,144.142C270.138,174.729 244.833,199.193 214.245,199.193Z" style="fill-rule:nonzero;"/>
        </g>
    </g>
</svg>
