<?xml version="1.0" encoding="UTF-8" standalone="no"?>
<!DOCTYPE svg PUBLIC "-//W3C//DTD SVG 1.1//EN" "http://www.w3.org/Graphics/SVG/1.1/DTD/svg11.dtd">
<svg width="100%" height="100%" viewBox="0 0 448 512" version="1.1" xmlns="http://www.w3.org/2000/svg" xmlns:xlink="http://www.w3.org/1999/xlink" xml:space="preserve" xmlns:serif="http://www.serif.com/" style="fill-rule:evenodd;clip-rule:evenodd;stroke-linejoin:round;stroke-miterlimit:1.41421;">
    <path d="M400,512L48,512C21.5,512 0,490.5 0,464L0,422.4C0,350.3 56.9,292 128.2,288.6L176,288L272,288L319.8,288.6C391.1,292 448,350.3 448,422.4L448,464C448,490.5 426.5,512 400,512ZM381.143,497C404.804,497 424,478.763 424,456.286L424,421C424,359.844 373.196,310.393 309.536,307.509L266.857,307L181.143,307L138.464,307.509C74.804,310.393 24,359.844 24,421L24,456.286C24,478.763 43.196,497 66.857,497L381.143,497ZM224,256C294.7,256 352,198.7 352,128C352,57.3 294.7,0 224,0C153.3,0 96,57.3 96,128C96,198.7 153.3,256 224,256ZM224,26.412C280.847,26.412 327,72.564 327,129.411C327,186.258 280.847,232.411 224,232.411C167.152,232.411 120.999,186.258 120.999,129.411C120.999,72.564 167.152,26.412 224,26.412Z" style="fill-rule:nonzero;"/>
</svg>
